<?xml version="1.0" encoding="UTF-8"?>
<svg version="1.1" xmlns="http://www.w3.org/2000/svg" width="512" height="512">
<path d="M0 0 C7.94073609 7.48679793 14.10170601 15.32601435 19.46875 24.8125 C19.9534375 25.66585937 20.438125 26.51921875 20.9375 27.3984375 C22.09375 29.5625 22.09375 29.5625 23.46875 32.8125 C22.17493467 35.40013067 21.26910582 35.44875738 18.5859375 36.41308594 C17.7599707 36.71390076 16.93400391 37.01471558 16.08300781 37.324646 C15.17905273 37.64548157 14.27509766 37.96631714 13.34375 38.296875 C12.40885742 38.63495178 11.47396484 38.97302856 10.51074219 39.3213501 C7.4991355 40.4085066 4.48401941 41.48554932 1.46875 42.5625 C-0.50283771 43.27278956 -2.47419468 43.98371998 -4.4453125 44.6953125 C-15.78953581 48.78450927 -27.15431509 52.81530173 -38.53125 56.8125 C-39.06282715 56.03994873 -39.5944043 55.26739746 -40.14208984 54.47143555 C-48.12501271 42.97161114 -57.43752551 34.67902023 -71.53125 31.8125 C-86.13713708 29.76531367 -98.06441518 31.98725523 -110.53125 39.8125 C-120.3992788 47.74673641 -126.11764388 57.3959808 -128.53125 69.8125 C-130.13003772 84.54827401 -127.82089323 97.92175667 -118.53125 109.8125 C-117.61279297 111.06160156 -117.61279297 111.06160156 -116.67578125 112.3359375 C-110.62528734 119.32321098 -100.63614687 124.37026427 -91.53125 125.8125 C-76.31708737 126.72594874 -64.28000401 125.31303717 -51.7734375 115.8125 C-49.20982263 113.65839688 -49.20982263 113.65839688 -46.53125 109.8125 C-62.04125 109.8125 -77.55125 109.8125 -93.53125 109.8125 C-93.53125 93.6425 -93.53125 77.4725 -93.53125 60.8125 C-53.60125 60.8125 -13.67125 60.8125 27.46875 60.8125 C34.32728846 81.38811537 26.2492307 110.44754774 17.00488281 129.06616211 C12.68000502 137.46059556 7.98382466 144.91540035 1.46875 151.8125 C0.99066895 152.33005859 0.51258789 152.84761719 0.02001953 153.38085938 C-15.21189852 169.78076609 -33.57256994 180.91663535 -55.53125 185.8125 C-56.28374023 185.98765137 -57.03623047 186.16280273 -57.81152344 186.34326172 C-66.18942736 188.10529367 -74.51176844 188.21064664 -83.03125 188.1875 C-83.78314606 188.18695618 -84.53504211 188.18641235 -85.3097229 188.18585205 C-97.08068798 188.14672141 -108.27037338 187.47902794 -119.53125 183.8125 C-120.50384766 183.49901611 -120.50384766 183.49901611 -121.49609375 183.17919922 C-137.45076513 177.82218556 -151.23983851 169.18841325 -163.53125 157.8125 C-164.29050781 157.12285156 -165.04976563 156.43320312 -165.83203125 155.72265625 C-183.11552522 139.31172702 -194.48471499 115.19034101 -195.70825195 91.3659668 C-196.2516409 59.40560391 -196.2516409 59.40560391 -191.53125 44.8125 C-191.15742188 43.65492188 -190.78359375 42.49734375 -190.3984375 41.3046875 C-186.06437918 29.16358374 -179.93185089 18.55857701 -171.53125 8.8125 C-171.01691406 8.17699219 -170.50257813 7.54148438 -169.97265625 6.88671875 C-152.15009181 -14.89641557 -124.4248194 -27.26628654 -96.92358398 -30.28686523 C-61.43405847 -33.59742248 -26.70907375 -24.40159437 0 0 Z " fill="#1A8A4A" transform="translate(457.53125,183.1875)"/>
<path d="M0 0 C7.94073609 7.48679793 14.10170601 15.32601435 19.46875 24.8125 C19.9534375 25.66585937 20.438125 26.51921875 20.9375 27.3984375 C22.09375 29.5625 22.09375 29.5625 23.46875 32.8125 C22.17493467 35.40013067 21.26910582 35.44875738 18.5859375 36.41308594 C17.7599707 36.71390076 16.93400391 37.01471558 16.08300781 37.324646 C15.17905273 37.64548157 14.27509766 37.96631714 13.34375 38.296875 C12.40885742 38.63495178 11.47396484 38.97302856 10.51074219 39.3213501 C7.4991355 40.4085066 4.48401941 41.48554932 1.46875 42.5625 C-0.50283771 43.27278956 -2.47419468 43.98371998 -4.4453125 44.6953125 C-15.78953581 48.78450927 -27.15431509 52.81530173 -38.53125 56.8125 C-39.06282715 56.03994873 -39.5944043 55.26739746 -40.14208984 54.47143555 C-48.12501271 42.97161114 -57.43752551 34.67902023 -71.53125 31.8125 C-86.13713708 29.76531367 -98.06441518 31.98725523 -110.53125 39.8125 C-120.3992788 47.74673641 -126.11764388 57.3959808 -128.53125 69.8125 C-130.13003772 84.54827401 -127.82089323 97.92175667 -118.53125 109.8125 C-117.61279297 111.06160156 -117.61279297 111.06160156 -116.67578125 112.3359375 C-110.62528734 119.32321098 -100.63614687 124.37026427 -91.53125 125.8125 C-76.31708737 126.72594874 -64.28000401 125.31303717 -51.7734375 115.8125 C-49.20982263 113.65839688 -49.20982263 113.65839688 -46.53125 109.8125 C-62.04125 109.8125 -77.55125 109.8125 -93.53125 109.8125 C-93.53125 93.6425 -93.53125 77.4725 -93.53125 60.8125 C-53.60125 60.8125 -13.67125 60.8125 27.46875 60.8125 C34.32728846 81.38811537 26.2492307 110.44754774 17.00488281 129.06616211 C12.68000502 137.46059556 7.98382466 144.91540035 1.46875 151.8125 C0.99066895 152.33005859 0.51258789 152.84761719 0.02001953 153.38085938 C-15.21189852 169.78076609 -33.57256994 180.91663535 -55.53125 185.8125 C-56.28374023 185.98765137 -57.03623047 186.16280273 -57.81152344 186.34326172 C-66.18942736 188.10529367 -74.51176844 188.21064664 -83.03125 188.1875 C-83.78314606 188.18695618 -84.53504211 188.18641235 -85.3097229 188.18585205 C-97.08068798 188.14672141 -108.27037338 187.47902794 -119.53125 183.8125 C-120.50384766 183.49901611 -120.50384766 183.49901611 -121.49609375 183.17919922 C-137.45076513 177.82218556 -151.23983851 169.18841325 -163.53125 157.8125 C-164.29050781 157.12285156 -165.04976562 156.43320312 -165.83203125 155.72265625 C-183.11552522 139.31172702 -194.48471499 115.19034101 -195.70825195 91.3659668 C-196.2516409 59.40560391 -196.2516409 59.40560391 -191.53125 44.8125 C-191.15742188 43.65492188 -190.78359375 42.49734375 -190.3984375 41.3046875 C-186.06437918 29.16358374 -179.93185089 18.55857701 -171.53125 8.8125 C-171.01691406 8.17699219 -170.50257813 7.54148438 -169.97265625 6.88671875 C-152.15009181 -14.89641557 -124.4248194 -27.26628654 -96.92358398 -30.28686523 C-61.43405847 -33.59742248 -26.70907375 -24.40159437 0 0 Z " fill="#000000" transform="translate(221.53125,183.1875)"/>
</svg>
