<?xml version="1.0" standalone="no"?>
<!DOCTYPE svg PUBLIC "-//W3C//DTD SVG 20010904//EN"
 "http://www.w3.org/TR/2001/REC-SVG-20010904/DTD/svg10.dtd">
<svg version="1.0" xmlns="http://www.w3.org/2000/svg"
 width="200.000000pt" height="200.000000pt" viewBox="0 0 200.000000 200.000000"
 preserveAspectRatio="xMidYMid meet">

<g transform="translate(0.000000,200.000000) scale(0.100000,-0.100000)"
fill="#000000" stroke="none">
<path d="M557 1400 c-131 -17 -271 -126 -317 -247 -28 -72 -31 -205 -6 -273
40 -111 132 -202 243 -242 82 -30 217 -29 296 1 148 57 239 186 254 358 l6 73
-222 0 -221 0 0 -85 0 -84 93 -3 92 -3 -38 -29 c-30 -23 -52 -31 -96 -34 -77
-6 -130 21 -167 83 -23 39 -26 54 -22 108 4 75 30 118 88 147 77 39 194 16
235 -47 l15 -22 103 36 c56 20 104 38 106 40 8 6 -17 51 -50 87 -92 106 -238
156 -392 136z"/>
<path d="M1310 1397 c0 -2 -70 -173 -155 -382 -85 -208 -155 -382 -155 -387 0
-4 51 -8 114 -8 l114 0 18 50 18 50 139 0 138 0 21 -50 21 -50 114 0 c106 0
115 1 109 17 -4 10 -75 186 -159 391 l-152 372 -92 0 c-51 0 -93 -1 -93 -3z
m124 -396 c14 -36 26 -68 26 -73 0 -4 -25 -8 -55 -8 -30 0 -55 4 -55 10 0 13
52 142 55 138 2 -2 15 -32 29 -67z"/>
</g>
</svg>
